<svg id="Layer_1" data-name="Layer 1" xmlns="http://www.w3.org/2000/svg" viewBox="0 0 113.39 93.54"><title>maozinhas</title><path d="M16.93,41.85h0V42h-.1v-.11Z"/><path d="M43.61,42l8.24.42c.1,1.29.19,2.46.31,4.13H7.93c.12-1.29.25-2.59.39-4.12L16.93,42H42.85C43.12,43.51,43.33,40.33,43.61,42Z"/><path d="M47.5,55.42v4.41H12.77c-.16,3.09-.29,5.77-.43,8.45l-4.29.27V55.74l-4-.6V46.61H7.83c.17,2.8.34,5.6.53,8.81Z"/><path d="M7.83,46.61v-.09l0,0,0,0h.11v.09Z"/><path d="M47.75,72.55c-1.49.27-22.42.2-22.42.2H12.66c-.1-1.75-.17-3.07-.24-4.39h35C47.55,70,47.64,71.15,47.75,72.55Z"/><path d="M12.42,68.36h-.08v-.08h.07Z"/><path d="M82.85,77.38v4.4H52.19v-4.4Z"/><path d="M52.19,81.78v.1H52.1v-.1Z"/><path d="M56.69,24.87H56.6l.09-.07Z"/><path d="M61.28,29h8.14c.09,1.46.17,2.62.26,4.1H43.51c-.1-1.16-.2-2.43-.31-3.7H56.28l.41-4.54h4C60.92,26.29,61.08,27.49,61.28,29Z"/><path d="M113.39,42.41V68.62l-4.19-.37q0-13.06,0-26.13Z"/><path d="M109.2,68.25v.12h-.14v-.13Z"/><path d="M17.12,29.13H43.26c-.08,1.62-.15,3-.21,4.4H16.93C17,32.13,17.05,30.72,17.12,29.13Z"/><path d="M43.05,29.27h.14v.14H43Z"/><path d="M26,81.88h-.11v-.09H26Z"/><path d="M26,81.4V77.27H52.1V81.4Z"/><path d="M100.1,37.53h.07l-.08.06Z"/><path d="M95.85,33.47h-8.3c-.2-1.57-.35-2.76-.51-4.07l-4.1-.56v-4h8.47l.63,4,3.83.54c.2,1.27.38,2.46.58,3.71l4,.74c-.12,1.34-.23,2.52-.34,3.69l-3.71.24Z"/><path d="M73.82,20.27h.11v.12h-.12Z"/><path d="M64.89,15.77H56.7V11.66H65c.25,1.43.48,2.71.76,4.34h8.44c-.14,1.69-.24,3-.34,4.27H65.69C65.43,18.8,65.22,17.6,64.89,15.77Z"/><path d="M96.36,72.87c-.15,1.39-.3,2.79-.48,4.41H83V72.87Z"/><path d="M83,77.28v.1h-.1v-.1Z"/><path d="M96.44,72.77v.1h-.09v-.1Z"/><path d="M109.06,68.37v4.4H96.44c-.11-1.17-.22-2.37-.42-4.4Z"/><path d="M100.17,37.53v.06h-.09Z"/><path d="M100.18,37.59h8.91V42h-8.36C100.53,40.41,100.36,39,100.18,37.59Z"/><path d="M109.09,42h.1v.1h-.1Z"/><path d="M52.38,24.43V15.86H56.6v8.93Z"/><path d="M56.6,15.86v-.09h.1v.09Z"/><path d="M56.6,24.87v-.08h.09Z"/><path d="M82.85,24.77h.09v.1h-.09Z"/><path d="M78.88,24.74c-3.54.55-5.29-.7-4.95-4.35h8.92v4.38A22.92,22.92,0,0,0,78.88,24.74Z"/><path d="M12.74,42V33.39l4.1.25c0,2.71,0,5.41,0,8.12Z"/><path d="M16.84,29.39v-.11h.09v.11Z"/><path d="M21.77,77.18V72.76H26c0,1.47,0,2.94,0,4.42Z"/></svg>