<svg id="Layer_1" data-name="Layer 1" xmlns="http://www.w3.org/2000/svg" viewBox="0 0 113.39 93.54"><title>maozinhas</title><path d="M96.46,41.85h0V42h.09v-.11Z"/><path d="M69.77,42l-8.23.42-.32,4.13h44.24c-.13-1.29-.25-2.59-.4-4.12L96.46,42H70.54C70.27,43.51,70.06,40.33,69.77,42Z"/><path d="M65.89,55.42v4.41h34.73c.16,3.09.29,5.77.42,8.45l4.3.27V55.74l4-.6V46.61h-3.81c-.17,2.8-.34,5.6-.54,8.81Z"/><path d="M105.56,46.61v-.09l0,0,0,0h-.1v.09Z"/><path d="M65.63,72.55c1.5.27,22.43.2,22.43.2h12.67c.09-1.75.17-3.07.24-4.39H66C65.84,70,65.74,71.15,65.63,72.55Z"/><path d="M101,68.36h.08v-.08H101Z"/><path d="M30.54,77.38v4.4H61.19v-4.4Z"/><path d="M61.19,81.78v.1h.1v-.1Z"/><path d="M56.7,24.87h.09l-.1-.07Z"/><path d="M52.11,29H44c-.1,1.46-.17,2.62-.27,4.1H69.87l.32-3.7H57.11l-.41-4.54H52.65C52.47,26.29,52.31,27.49,52.11,29Z"/><path d="M0,42.41V68.62l4.19-.37q0-13.06,0-26.13Z"/><path d="M4.19,68.25v.12h.13v-.13Z"/><path d="M96.26,29.13H70.12c.08,1.62.15,3,.22,4.4H96.46C96.4,32.13,96.33,30.72,96.26,29.13Z"/><path d="M70.34,29.27H70.2v.14h.16Z"/><path d="M87.44,81.88h.1v-.09h-.1Z"/><path d="M87.44,81.4V77.27H61.29V81.4Z"/><path d="M13.29,37.53h-.08l.09.06Z"/><path d="M17.53,33.47h8.3c.2-1.57.35-2.76.52-4.07l4.09-.56v-4H22l-.63,4-3.82.54c-.2,1.27-.39,2.46-.58,3.71l-4,.74c.13,1.34.24,2.52.35,3.69l3.71.24C17.19,36.25,17.34,35.06,17.53,33.47Z"/><path d="M39.57,20.27h-.12a.49.49,0,0,1,0,.12h.12Z"/><path d="M48.49,15.77h8.19V11.66H48.43c-.25,1.43-.48,2.71-.77,4.34H39.23c.13,1.69.24,3,.34,4.27H47.7C48,18.8,48.17,17.6,48.49,15.77Z"/><path d="M17,72.87c.15,1.39.3,2.79.47,4.41H30.44V72.87Z"/><path d="M30.44,77.28v.1h.1v-.1Z"/><path d="M16.94,72.77v.1H17v-.1Z"/><path d="M4.32,68.37v4.4H16.94c.11-1.17.23-2.37.42-4.4Z"/><path d="M13.21,37.53v.06h.1Z"/><path d="M13.2,37.59H4.3V42h8.36C12.86,40.41,13,39,13.2,37.59Z"/><path d="M4.3,42H4.2v.1h.1Z"/><path d="M61,24.43V15.86H56.79v8.93Z"/><path d="M56.79,15.86v-.09h-.11v.09Z"/><path d="M56.79,24.87v-.08h-.1Z"/><path d="M30.54,24.77h-.1v.1h.1Z"/><path d="M34.5,24.74c3.55.55,5.3-.7,5-4.35H30.54v4.38A22.81,22.81,0,0,1,34.5,24.74Z"/><path d="M100.65,42V33.39l-4.1.25v8.12Z"/><path d="M96.55,29.39v-.11h-.09v.11Z"/><path d="M91.62,77.18V72.76H87.44v4.42Z"/></svg>