<svg id="Layer_1" data-name="Layer 1" xmlns="http://www.w3.org/2000/svg" viewBox="0 0 113.39 93.54"><title>maozinhas</title><path d="M100.68,31.29v-.1h-.09v.1Z"/><path d="M109.63,35.49c-.22-1.21-.47-2.5-.79-4.2h-8.16v4.64H109V66.68H96.17V71h12.68c.29-1.45.52-2.65.79-4l3.75-.64V36.19Z"/><path d="M69.51,22.53H61.17c-.14-1.6-.24-2.79-.35-4l-4-.22c-.22,1.48-.39,2.66-.62,4.19h-17v4.17H69.51Z"/><path d="M60.81,18.46v.09h.08Z"/><path d="M39.17,26.69h-.09v.08h.09Z"/><path d="M82.56,75.56h.09v-.09h-.11Z"/><path d="M56.3,75.57h.11v-.09Z"/><path d="M56.63,79.5H83c-.15-1.42-.28-2.68-.41-3.94H56.41C56.48,76.77,56.55,78,56.63,79.5Z"/><path d="M51.84,53.3v-4H39.17V61.92h4.4V53.3Z"/><path d="M39.08,49.31h.09v-.08Z"/><path d="M43.57,61.92v.13h.16v-.13Z"/><path d="M78.19,14H60.9v4.42H78.83C78.63,17.05,78.42,15.63,78.19,14Z"/><path d="M60.9,18.46h-.09l.09.1Z"/><path d="M56.32,66.59V62.05H43.73V71h4.34c-.08-1.29-.17-2.59-.29-4.37Z"/><path d="M48.07,71v.1h.13V71Z"/><path d="M96.08,71.06h.09V71h-.09Z"/><path d="M82.66,75.47H96.08V71.06H83.22C83,72.83,82.82,74.16,82.66,75.47Z"/><path d="M39.18,40.2h-.11v.11h.11Z"/><path d="M51.87,35.8H39.17c0,1.47,0,2.93,0,4.4H51.87Z"/><path d="M39.07,35.69v.11h.1v-.11Z"/><path d="M34.87,27.1v8.59h4.2q0-4.45,0-8.92Z"/><path d="M34.84,40.31v8.41l4.24.5q0-4.45,0-8.91Z"/><path d="M39.08,49.22v.09l.09-.08Z"/><path d="M96.17,26.69h-.1v.07Z"/><path d="M87.18,23.09V23H87v.15Z"/><path d="M96.07,26.69V22.46l-8.89.63.31,3.6Z"/><path d="M48.21,71.06c-.17,1.26-.34,2.54-.59,4.42H56.3V71.06Z"/><path d="M56.3,75.48v.09l.11-.09Z"/><path d="M87,23c.07-1.4.15-2.81.23-4.39H78.91c-.11,1.24-.23,2.49-.35,3.84Z"/><path d="M78.85,18.56h.06v-.09h-.09l0,.09Z"/><path d="M100.59,31.19V27.32l-4.42-.55v4.65Z"/><path d="M96.17,26.77v-.08l-.1.07Z"/></svg>