<svg id="Layer_1" data-name="Layer 1" xmlns="http://www.w3.org/2000/svg" viewBox="0 0 113.39 93.54"><title>maozinhas</title><path d="M4.44,66.68V35.93h8.27V31.29H4.54c-.32,1.7-.56,3-.79,4.2L0,36.19V66.27l3.74.64c.28,1.4.51,2.6.79,4H17.21V66.68Z"/><path d="M17.21,71v.1h.1V71Z"/><path d="M43.88,22.53v4.16H74.22V22.52h-17c-.23-1.53-.41-2.71-.63-4.19l-4,.22c-.1,1.19-.2,2.38-.34,4Z"/><path d="M52.56,18.55v-.09l-.09.1Z"/><path d="M57,75.57h.11v-.09H57Z"/><path d="M30.42,79.5H56.76c.08-1.51.15-2.73.21-3.93H30.83C30.7,76.82,30.57,78.08,30.42,79.5Z"/><path d="M61.55,53.3h8.27v8.62h4.4V49.31H61.55Z"/><path d="M74.22,49.31h.09l-.09-.08Z"/><path d="M52.57,18.46h-.09v.1Z"/><path d="M34.54,18.56h0v-.09h-.08v.09Z"/><path d="M52.48,14H35.2c-.23,1.59-.44,3-.65,4.43H52.48Z"/><path d="M57.07,66.59H65.6c-.12,1.78-.2,3.08-.29,4.37h4.35V62.05H57.07Z"/><path d="M69.66,62.05h.16v-.13h-.16Z"/><path d="M17.31,71.06v4.41H30.73c-.17-1.31-.34-2.64-.56-4.41Z"/><path d="M30.73,75.47v.09h.09v-.09Z"/><path d="M74.21,35.8h.11v-.11h-.11Z"/><path d="M61.52,40.2H74.21V35.8H61.52Z"/><path d="M78.52,35.69V27.1l-4.21-.33q0,4.47,0,8.92Z"/><path d="M74.31,26.77v-.08h-.09v.08Z"/><path d="M74.32,40.31V40.2h-.11v.11Z"/><path d="M74.32,40.31q0,4.45,0,8.91l4.24-.5V40.31Z"/><path d="M74.31,49.31v-.09h-.09Z"/><path d="M17.32,26.69h-.1l.1.07Z"/><path d="M26.2,23.09l-8.88-.63v4.23H25.9C26,25.41,26.1,24.25,26.2,23.09Z"/><path d="M65.17,71.06h.14V71h-.15Z"/><path d="M57.08,75.48h8.68c-.25-1.88-.42-3.16-.59-4.42H57.08Z"/><path d="M34.48,18.56H26.12c.09,1.58.16,3,.24,4.39l8.47-.55C34.7,21.05,34.59,19.8,34.48,18.56Z"/><path d="M26.36,23h-.14l0,.13h.17Z"/><path d="M17.22,26.77l-4.42.55v3.87l4.42.23Z"/><path d="M12.8,31.19h-.09v.1h.09Z"/><path d="M17.22,26.69v.08h.1Z"/></svg>