<svg id="Layer_1" data-name="Layer 1" xmlns="http://www.w3.org/2000/svg" viewBox="0 0 113.39 93.54"><title>maozinhas</title><path d="M43.1,64.66v-.09l.08.1Z"/><path d="M69.45,72.7v-8l4.26-.36v8.48L70,73.28c-.22,1.21-.43,2.4-.71,4L21,77.38V72.92h18V64.34l4.2.32v8Z"/><path d="M69.42,33.9h-.06v-.07Z"/><path d="M69.36,33.9H47.87c-.14,1.26-.27,2.47-.42,3.79l-4.26.52V51.05l26.15.1c0,3,0,6,0,8.93l-26.14.09c0,1.47,0,2.93,0,4.4H69.33l.12-4.4,4.25-.34V51.27l-4.25-.22c0-1.47,0-2.93,0-4.4H73.7V38.26l-4.24-.72C69.43,36.33,69.4,35.11,69.36,33.9ZM48,37.6H69.33q0,4.47,0,8.94H48Z"/><path d="M56.6,86.31H21V81.8l35.27.11C56.36,83.5,56.48,84.91,56.6,86.31Z"/><path d="M74.09,7.44H65.54c-.23,4.31-.47,8.58-.7,12.85H61.06V7.39l3.78-.48c.32-1.38.62-2.65.91-3.84h12.6V20.3H74.09Z"/><path d="M64.83,20.4v-.11h.06Z"/><path d="M78.35,20.3h.11v.1h-.11Z"/><path d="M109.21,77.3v.1h-.11v-.11Z"/><path d="M113.39,46.65V77.48l-4.18-.18V46.65Z"/><path d="M43.1,64.57h.08v.1Z"/><path d="M43.19,60.17h-.1v-.1h.1Z"/><path d="M69.33,64.56h.12v.11h-.12Z"/><path d="M95.64,82c.22-1.62.38-2.82.62-4.56H109.1V82H96.33c-.28,1.62-.48,2.81-.74,4.29H83V82Z"/><path d="M83,86.31v.1h-.09v-.1Z"/><path d="M56.72,86.41h-.11v-.1h.12Z"/><path d="M82.87,90.48H56.5c.08-1.51.15-2.79.22-4.07H82.87Z"/><path d="M100.11,42.06h.08l-.08.07Z"/><path d="M95.58,38H87.46V33.91l8.23-.49c.24,1.71.4,2.89.57,4.18l4.17.76c-.12,1.36-.22,2.53-.32,3.7l-3.73.27C96.1,40.81,95.87,39.52,95.58,38Z"/><path d="M78.46,20.4h4.41v8.91L78.46,29Z"/><path d="M82.87,29.43h0v-.12H83v.12Z"/><path d="M100.2,42.12h8.91v4.42h-8.43C100.51,44.93,100.35,43.53,100.2,42.12Z"/><path d="M109.11,46.55h.1v.1h-.1Z"/><path d="M100.19,42.05v.07h-.09Z"/><path d="M39,59.76V51.15h4.08v8.92Z"/><path d="M43.09,51.15v-.1h.1v.1Z"/><path d="M69.36,29.38l0-.08v.12h-.08V29.3h.08Z"/><path d="M64.83,20.4l.07-.11v.11Z"/><path d="M69.33,29.3l-3.86-.38-.56-8.52h4.42Z"/><path d="M73.81,33.2l-4.39.62c0-1.47,0-2.94,0-4.4l4.4-.2Z"/><path d="M69.36,33.83h.06v.08Z"/><path d="M21.19,77.38c0,1.51-.24,3.12-.24,4.42-1.54.22-2.73,0-4.15.19,0-1.47,0-2.94,0-4.41Z"/><path d="M16.8,82.06,16.74,82h.06Z"/><path d="M16.79,77.47v.11h-.08Z"/><path d="M87.38,33.81h.08v.09h-.08Z"/><path d="M83,29.43h4.42v4.38L83,33.26Z"/></svg>