<svg id="Layer_1" data-name="Layer 1" xmlns="http://www.w3.org/2000/svg" viewBox="0 0 113.39 93.54"><title>maozinhas</title><path d="M70.29,64.66v-.09l-.09.1Z"/><path d="M43.93,72.7v-8l-4.25-.36v8.48l3.67.49c.21,1.21.42,2.4.71,4l48.38.08V72.92h-18V64.34l-4.19.32v8Z"/><path d="M44,33.9H44v-.07Z"/><path d="M43.93,37.54l-4.25.72v8.39h4.26v4.4l-4.26.22v8.55l4.26.34.11,4.4H70.2c0-1.47,0-2.93,0-4.4l-26.14-.09V51.15l26.14-.1V38.21l-4.26-.52c-.14-1.32-.27-2.53-.41-3.79H44Zm21.51,9H44c0-3,0-6,0-8.94H65.44Z"/><path d="M56.78,86.31H92.44V81.8l-35.28.11C57,83.5,56.9,84.91,56.78,86.31Z"/><path d="M39.3,7.44h8.54c.24,4.31.47,8.58.71,12.85h3.78V7.39l-3.78-.48c-.33-1.38-.63-2.65-.91-3.84H35V20.3H39.3Z"/><path d="M48.55,20.4v-.11h-.07Z"/><path d="M35,20.3h-.1v.1H35Z"/><path d="M4.17,77.3v.1h.11v-.11Z"/><path d="M0,46.65V77.48l4.17-.18q0-15.33,0-30.65Z"/><path d="M70.29,64.57H70.2v.1Z"/><path d="M70.19,60.17h.11v-.1h-.11Z"/><path d="M44.05,64.56h-.12v.11h.13Z"/><path d="M17.75,82c-.22-1.62-.38-2.82-.62-4.56H4.28V82H17.05c.28,1.62.49,2.81.75,4.29H30.42V82Z"/><path d="M30.42,86.31v.1h.1v-.1Z"/><path d="M56.67,86.41h.1v-.1h-.12Z"/><path d="M30.52,90.48H56.88c-.08-1.51-.15-2.79-.21-4.07H30.52Z"/><path d="M13.28,42.06h-.09l.09.07Z"/><path d="M17.8,38h8.13V33.91l-8.24-.49c-.23,1.71-.39,2.89-.57,4.18L13,38.36c.12,1.36.22,2.53.32,3.7l3.72.27C17.28,40.81,17.52,39.52,17.8,38Z"/><path d="M34.93,20.4H30.52v8.91L34.93,29Z"/><path d="M30.52,29.43h0v-.12h-.1v.12Z"/><path d="M13.18,42.12H4.28v4.42H12.7C12.88,44.93,13,43.53,13.18,42.12Z"/><path d="M4.28,46.55h-.1v.1h.1Z"/><path d="M13.19,42.05v.07h.1Z"/><path d="M74.38,59.76V51.15H70.29c0,3,0,6,0,8.92Z"/><path d="M70.29,51.15v-.1h-.1v.1Z"/><path d="M44,29.38,44,29.3v.12h.09V29.3H44Z"/><path d="M48.55,20.4l-.07-.11v.11Z"/><path d="M44.06,29.3l3.86-.38.56-8.52H44.06Z"/><path d="M39.58,33.2l4.38.62c0-1.47,0-2.94,0-4.4l-4.39-.2Z"/><path d="M44,33.83H44v.08Z"/><path d="M92.19,77.38c0,1.51.25,3.12.25,4.42,1.54.22,2.73,0,4.14.19,0-1.47,0-2.94,0-4.41Z"/><path d="M96.58,82.06l.06-.07h-.06Z"/><path d="M96.59,77.47v.11h.09Z"/><path d="M26,33.81h-.08v.09H26Z"/><path d="M30.42,29.43H26v4.38l4.41-.55Z"/></svg>