<svg id="Layer_1" data-name="Layer 1" xmlns="http://www.w3.org/2000/svg" viewBox="0 0 113.39 93.54"><title>maozinhas</title><path d="M25.65,53.48h.1v.09h-.1v-.09Z"/><path d="M51.88,49.24l.26,4-8.56.38v8.51H56.26c.09,1.53.15,2.69.24,4.24l-8.38.37c-.25,1.45-.48,2.74-.7,4H43.18V62.61l-4.06-.81c-.13-2.8-.25-5.48-.38-8.32h-13V49.24Z"/><path d="M69.25,22.4c.66,2.6,1.47,4.7-2.14,4.69-11.81,0-23.63,0-35.45-.07a6.63,6.63,0,0,1-1.41-.4v-3.8H51.72l.72-4.5h4l.27,4.08Z"/><path d="M12.87,31.2H29.94c.08,1.68.15,3,.21,4.23H12.79c-.2-1.42-.36-2.61-.52-3.78L8.48,31V22.91l3.74-.68c.3-1.47.54-2.65.76-3.76H30.16v4.25H12.87Z"/><path d="M30.16,22.72h.09v.1h-.09Z"/><path d="M109,66.6V35.54l4.4.43V66.24l-3.82.62c-.23,1.38-.42,2.56-.63,3.85H96.26c-.05-1.19-.1-2.4-.18-4.11Z"/><path d="M56.5,75.22h0v.1h-.09v-.1Z"/><path d="M82.64,79.5H56.5V75.32H82.64Z"/><path d="M30.28,35.56h-.13v-.13h.13Z"/><path d="M51.92,40H30.26c0-1.47,0-2.93,0-4.4H51.92Z"/><path d="M56.5,14h22c-.12,1.57-.22,2.87-.31,4.17H56.5Z"/><path d="M78.14,18.21h.11l0,.12h-.14Z"/><path d="M56.45,18.27l0,.05h-.09v-.1h.09v.1Z"/><path d="M30.16,40V40h.1V40Z"/><path d="M8.52,44.46c-.1-1.28-.2-2.57-.34-4.42h22v4.42Z"/><path d="M8.51,53.49v.07H8.42Z"/><path d="M25.65,57.6H8.18c.12-1.5.22-2.77.32-4H25.65Z"/><path d="M96.24,70.79l-.06-.08h.08v.1h-.1v-.1Z"/><path d="M82.76,75.2v.12h-.12V75.2Z"/><path d="M96.17,70.81l-.25,4.39H82.76L83,70.81Z"/><path d="M100.2,31.7l-3.94-.62V27.32l3.91-.22c.23,1.58.41,2.76.63,4.25,1.65,0,3.13.13,4.57,0,3.33-.35,4.68.83,3.55,4.14h-8.17C100.57,34.25,100.4,33.06,100.2,31.7Z"/><path d="M108.92,35.47H109v.07h-.09A.64.64,0,0,1,108.92,35.47Z"/><path d="M8.42,53.56v-.08h.09Z"/><path d="M8.42,44.56v-.1h.1v.1Z"/><path d="M4.12,53.23V44.56h4.3v8.92Z"/><path d="M47.46,70.81H47.4l0-.09h0S47.47,70.77,47.46,70.81Z"/><path d="M56.41,75.22a29.87,29.87,0,0,0-3.91.16c-3.69.58-5.41-.83-5-4.57h8.95Z"/><path d="M87.26,22.83H96c.08,1.74.14,3.07.21,4.4H87.26Z"/><path d="M96.18,27.23h.08v.09h-.08Z"/><path d="M78.27,18.33h8.87v4.39H78.79C78.59,21.1,78.43,19.71,78.27,18.33Z"/><circle cx="87.2" cy="22.77" r="0.08"/></svg>