<svg id="Layer_1" data-name="Layer 1" xmlns="http://www.w3.org/2000/svg" viewBox="0 0 113.39 93.54"><title>maozinhas</title><path d="M87.73,53.48h-.09v.09h.09v-.09Z"/><path d="M61.5,49.24l-.25,4,8.56.38v8.51H57.12c-.08,1.53-.15,2.69-.24,4.24l8.38.37c.26,1.45.48,2.74.71,4h4.24V62.61l4.06-.81c.12-2.8.25-5.48.38-8.32h13V49.24Z"/><path d="M44.14,22.4c-.67,2.6-1.47,4.7,2.13,4.69,11.82,0,23.64,0,35.45-.07a6.47,6.47,0,0,0,1.41-.4v-3.8H61.67L61,18.32H57L56.7,22.4Z"/><path d="M100.52,31.2H83.44c-.08,1.68-.14,3-.2,4.23H100.6c.19-1.42.36-2.61.52-3.78l3.79-.62V22.91l-3.74-.68c-.3-1.47-.54-2.65-.77-3.76H83.22v4.25h17.3Z"/><path d="M83.22,22.72h-.09v.1h.09Z"/><path d="M4.4,66.6V35.54L0,36V66.24l3.82.62c.22,1.38.42,2.56.63,3.85H17.12c.06-1.19.11-2.4.18-4.11Z"/><path d="M56.88,75.22h0v.1H57v-.1Z"/><path d="M30.75,79.5H56.88V75.32H30.75Z"/><path d="M83.1,35.56h.13v-.13H83.1Z"/><path d="M61.47,40H83.12c0-1.47,0-2.93,0-4.4H61.47Z"/><path d="M56.89,14h-22c.12,1.57.21,2.87.31,4.17H56.89Z"/><path d="M35.25,18.21h-.12v.12h.14Z"/><path d="M56.93,18.27l0,.05H57v-.1h-.09v.1Z"/><path d="M83.23,40V40h-.11V40Z"/><path d="M104.87,44.46c.09-1.28.19-2.57.33-4.42h-22v4.42Z"/><path d="M104.88,53.49v.07H105Z"/><path d="M87.73,57.6h17.48c-.12-1.5-.23-2.77-.33-4H87.73Z"/><path d="M17.14,70.79l.07-.08h-.09v.1h.09v-.1Z"/><path d="M30.62,75.2v.12h.12V75.2Z"/><path d="M17.21,70.81c.08,1.41.17,2.81.26,4.39H30.62c-.08-1.3-.16-2.61-.26-4.39Z"/><path d="M13.18,31.7l3.94-.62V27.32l-3.9-.22c-.24,1.58-.41,2.76-.64,4.25-1.64,0-3.12.13-4.57,0-3.32-.35-4.67.83-3.55,4.14h8.18C12.82,34.25,13,33.06,13.18,31.7Z"/><path d="M4.46,35.47H4.4v.07h.08A.14.14,0,0,0,4.46,35.47Z"/><path d="M105,53.56v-.08h-.08Z"/><path d="M105,44.56v-.1h-.1v.1Z"/><path d="M109.27,53.23V44.56H105c0,3,0,5.95,0,8.92Z"/><path d="M65.92,70.81H66v-.09h0Z"/><path d="M57,75.22a29.94,29.94,0,0,1,3.91.16c3.69.58,5.41-.83,5-4.57H57Z"/><path d="M26.13,22.83H17.42c-.09,1.74-.15,3.07-.21,4.4h8.92Z"/><path d="M17.21,27.23h-.09v.09h.09Z"/><path d="M35.12,18.33H26.24v4.39H34.6C34.79,21.1,35,19.71,35.12,18.33Z"/><circle cx="26.18" cy="22.77" r="0.08"/></svg>